<?xml version="1.0" encoding="UTF-8"?>
<svg version="1.1" viewBox="0 0 1080 1080" width="1080" height="1080" xmlns="http://www.w3.org/2000/svg">
<path transform="translate(757,727)" d="m0 0h7l15 12 16 12 9 7 26 20 14 11 10 7 2 1v-67l3-3h7l9 7 34 26 13 10 10 8 30 23 14 11 21 16 30 23 14 11 10 8 9 7 1 5-2 5-16 12-16 13-11 8-18 14-17 13-18 14-13 10-14 11-13 10-14 11-12 9-18 14-13 10h-7l-3-3v-68l-11 8-14 11-18 14-34 26-16 12h-6l-3-3-1-2v-26l-9 7-13 10-9 7h-1l-1-294 3-1 14 11 15 12 1-25 2-4zm11 21-1 1v20l11 9 17 13 14 11 18 14 17 13 11 8h1v-22l-21-16-51-39-15-12zm102 0-1 1 1 61 30 23 15 12 8 6 18 14 13 10 3 3v7l-12 10-20 15-15 12-12 9-18 14-10 7-1 6v52l1 4 5-2 13-11 12-9 43-33 17-13 14-11 26-20 18-14 17-13 7-5-1-4-34-26-18-14-30-23-10-8-30-23-18-14-12-9-15-12zm0 80-1 20 16 12 16 13 10 7-2 4-14 10-16 13-9 6-1 2v19h4l17-13 14-11 26-20 10-8-4-5-16-12-15-12-16-12-14-11zm-16 98-17 13-36 28-17 13-14 11-3 2v21l4-1 14-11 18-14 13-10 30-23 10-8v-21z" fill="#47EAB8"/>
<path transform="translate(559,397)" d="m0 0h48l8 20 13 33 17 43 11 28 17 43 9 23 7 17 6 21 7 26 2 1-3-32v-223h35l1 152v143l-1 1h-47l-11-27-11-29-18-46-10-26-16-41-14-37-9-29-5-19-2 1 2 31v222h-36z" fill="#3D3C3D"/>
<path transform="translate(1e3 56)" d="m0 0h2l-1 5-12 21-16 29-13 23-15 27-13 23-7 13 2 6 15 28 17 32 15 28 11 21 9 16 6 12 6 10v3h-44l-10-19-17-33-15-29-17-33-10-19-1-4h-35l-13-1v138h-37v-296h37l1 125h46l12-23 12-22 14-26 16-30 8-14 5-10z" fill="#3C3B3C"/>
<path transform="translate(810,397)" d="m0 0h175v34h-138v92h123l1 1v33l-1 1h-122l-1 101h138v34h-175z" fill="#3C3B3C"/>
<path transform="translate(635,53)" d="m0 0h29l20 4 16 7 10 7 10 9 9 13 5 10 4 16 1 13h-39l-2-10-4-11-7-10-13-9-12-4-5-1h-14l-16 3-12 6-7 6-6 12-1 4v19l3 10 3 6 9 10 9 6 12 6 30 11 20 8 15 8 10 8 8 7 10 13 7 14 4 13 1 6v29l-4 15-4 9-7 11-10 10-14 9-15 6-11 3-18 2h-24l-15-2-18-6-12-6-12-9-7-7-7-10-6-12-4-15-1-13 1-1h37l2 1 3 16 6 10 5 5 7 6 16 7 17 2 17-1 14-4 9-5 9-8 4-6 3-8 1-6v-9l-2-12-7-14-8-9-15-10-15-6-30-11-15-7-14-8-10-8-10-10-7-11-5-11-3-11-1-7v-21l4-18 5-11 6-9 8-9 13-9 11-5 10-3z" fill="#3F3E3F"/>
<path transform="translate(377,57)" d="m0 0h52l17 63 11 43 17 64 20 75 10 39 2 7v5h-39l-5-18-15-61v-4h-90l-3 8-7 30-11 44-1 1h-39l2-9 16-58 10-38 10-36 17-63 12-44 10-36 3-11zm25 24-2 3-5 26-17 70-14 55 1 4h73l1-3-21-85-11-46-4-24z" fill="#3F3E3F"/>
<path transform="translate(376,397)" d="m0 0h53l20 75 40 152 17 64 1 5h-40l-2-6-17-70-1-7h-90l-3 9-18 73-1 1h-39l4-16 10-36 10-38 10-36 10-38 10-36 17-63 8-29zm25 25-3 13-8 36-26 104v4h75l-2-11-19-78-11-45-4-23z" fill="#3E3D3E"/>
<path transform="translate(50,57)" d="m0 0h210v33h-85l-1 263h-38v-264l-8 1h-78z" fill="#3C3B3C"/>
<path transform="translate(102,396)" d="m0 0 10 1v262h140v34h-177l-1-1v-295z" fill="#3D3C3D"/>
<path transform="translate(767,770)" d="m0 0 5 2 11 9 26 20 18 14 17 13 11 8 1 2v87l-16 13-16 12-15 12-12 9-13 10-14 11-3 1z" fill="#3B3A3B"/>
<path transform="translate(721,734)" d="m0 0 5 2 8 7 14 11 6 5v245l-10 8-13 10-9 7h-1l-1-294z" fill="#3A393A"/>
<path transform="translate(72,727)" d="m0 0h5l61 61 7 8 44 44v2l4 2 7 8 26 26v6l-27 27-5 6-6 5-7 8h-2l-2 4-46 46-7 8-47 47-7 1h-21l-1-2v-62l7-8 82-82-2-5-12-12-6-5-6-7-6-5-5-6-4-3v-2l-4-2v-2l-4-2v-2l-4-2-35-35-1-2v-47l7-6zm1 8-16 10-1 1v41l90 90 1 4-1 4-4 2-19 19-5 6-7 6-7 8-48 48v54h17l75-75v-2l4-2v-2l4-2 7-8 37-37v-2l3-1 7-8 7-7-2-5-63-63-7-8h-2l-2-4-49-49-5-6-6-5-3-4h-2v-2z" fill="#53EBBD"/>
<path transform="translate(550,727)" d="m0 0h6l48 48 7 8 52 52 5 6 37 37v6l-42 42-7 8-40 40-6 7h-2l-2 4-50 50-6 1h-21l-2-3v-59l2-5 6-5 6-7 4-4h2l2-4h2l2-4h2l2-4h2l2-4 55-55-1-4-28-28-6-5-6-7-6-5-6-7-6-5-5-6-4-3v-2l-4-2v-2l-4-2-12-12-1-2v-47l4-4zm1 9-14 8-2 2v41l37 37 5 6 6 5 5 5 5 6 6 5 5 6 7 6 5 6 8 8h2l-1 7-90 90v54h17l8-7 17-17 7-8 47-47 6-7 54-54v-2l4-2 1-5-56-56-5-6-57-57-7-8-16-16z" fill="#50EBBC"/>
<path transform="translate(408,727)" d="m0 0h6l18 18v2l4 2v2l3 1 7 8 55 55 7 8 55 55v6l-63 63-5 6h-2l-2 4-50 50-7 8-20 20-3 1h-25l-1-1v-64l51-51 6-7 4-4h2l2-4h2l2-4h2l2-4h2l2-4h2l2-4h2l1-3 4-4-1-4-87-87v-49l10-7zm1 8-17 11v39l3 5 50 50h2l2 4h2l1 3 6 5 5 5 5 6 8 7 7 8v5l-47 47v2l-4 2v2l-4 2v2l-4 2v2l-4 2v2l-4 2-5 6-12 12-6 5-1 2v52l1 1h17l48-48 7-8 39-39 6-7 6-5 7-8 31-31-2-4-28-28-4-5-6-5-2-3h-2l-2-4-49-49-7-8-41-41z" fill="#4EEBBB"/>
<path transform="translate(214,727)" d="m0 0 7 1 5 6 59 59v2l3 1 7 8 66 66 7 8 1 5-5 6-6 5-2 3h-2l-2 4-53 53-7 8-42 42-7 8-23 23-7 1h-21l-1-1v-64l88-88-1-5-80-80-6-5-2-4v-45l4-5zm1 8-16 10-1 2v39l7 8 83 83 1 6-75 75v2l-4 2v2l-4 2v2l-4 2-4 5v53h18l47-47v-2l4-2v-2l4-2v-2l4-2 7-8 37-37v-2l3-1 7-8 31-31-3-5-22-22-5-6-60-60-7-8-46-46z" fill="#4FEBBB"/>
<path transform="translate(869,849)" d="m0 0 4 1 12 9 16 13 11 8-2 4-19 14-16 13-6 3z" fill="#414041"/>
</svg>
